<svg width="32" height="44" viewBox="0 0 32 44" fill="none" xmlns="http://www.w3.org/2000/svg">
<path d="M15.5202 0C6.96222 0 0 6.96222 0 15.5202C0 25.9378 14.2294 42.9616 14.8352 43.6812C15.0044 43.8824 15.2536 43.9988 15.5163 44H15.5202C15.7815 44 16.0301 43.8857 16.2002 43.6871C16.8061 42.9796 31.0403 26.2371 31.0403 15.5202C31.0402 6.96222 24.0781 0 15.5202 0ZM15.5255 41.6956C12.6678 38.1414 1.79079 24.0506 1.79079 15.5202C1.79079 7.94978 7.94978 1.79079 15.5202 1.79079C23.0905 1.79079 29.2495 7.94978 29.2495 15.5202C29.2494 24.2938 18.3914 38.183 15.5255 41.6956Z" fill="#30D090"/>
<path d="M15.5255 41.6956C12.6678 38.1414 1.79079 24.0506 1.79079 15.5202C1.79079 7.94978 7.94978 1.79079 15.5202 1.79079C23.0905 1.79079 29.2495 7.94978 29.2495 15.5202C29.2494 24.2938 18.3914 38.183 15.5255 41.6956Z" fill="#30D090"/>
<path d="M17.6951 13.1066C18.8684 13.1066 19.8196 12.1554 19.8196 10.9821C19.8196 9.80878 18.8684 8.8576 17.6951 8.8576C16.5218 8.8576 15.5706 9.80878 15.5706 10.9821C15.5706 12.1554 16.5218 13.1066 17.6951 13.1066Z" stroke="black"/>
<path d="M9.19711 15.0143C9.19711 15.0143 12.0298 12.3984 16.2788 15.7225C20.7463 19.2175 23.3605 17.847 23.3605 17.847" stroke="black"/>
<path d="M16.197 15.6591C15.1297 17.4654 13.23 24.3449 7.07263 23.7291" stroke="black"/>
<path d="M14.0343 20.291C15.6121 20.6282 19.8196 21.9587 19.8196 26.5618" stroke="black"/>
</svg>
