<svg width="32" height="44" viewBox="0 0 32 44" fill="none" xmlns="http://www.w3.org/2000/svg">
<path d="M15.5202 0C6.96222 0 0 6.96222 0 15.5202C0 25.9378 14.2294 42.9616 14.8352 43.6812C15.0044 43.8824 15.2536 43.9988 15.5163 44H15.5202C15.7815 44 16.0301 43.8857 16.2002 43.6871C16.8061 42.9796 31.0403 26.2371 31.0403 15.5202C31.0402 6.96222 24.0781 0 15.5202 0ZM15.5255 41.6956C12.6678 38.1414 1.79079 24.0506 1.79079 15.5202C1.79079 7.94978 7.94978 1.79079 15.5202 1.79079C23.0905 1.79079 29.2495 7.94978 29.2495 15.5202C29.2494 24.2938 18.3914 38.183 15.5255 41.6956Z" fill="#30D090"/>
<path d="M15.5255 41.6956C12.6678 38.1414 1.79079 24.0506 1.79079 15.5202C1.79079 7.94978 7.94978 1.79079 15.5202 1.79079C23.0905 1.79079 29.2495 7.94978 29.2495 15.5202C29.2494 24.2938 18.3914 38.183 15.5255 41.6956Z" fill="#30D090"/>
<path d="M15.9069 20.4987C17.7122 20.4987 19.1758 19.0352 19.1758 17.2298C19.1758 15.4244 17.7122 13.9609 15.9069 13.9609C14.1015 13.9609 12.6379 15.4244 12.6379 17.2298C12.6379 19.0352 14.1015 20.4987 15.9069 20.4987Z" stroke="black"/>
<path d="M21.4641 15.2684C22.2254 15.2678 22.9764 15.4447 23.6574 15.7851C24.3383 16.1256 24.9305 16.6201 25.3869 17.2295" stroke="black"/>
<path d="M6.42651 17.2296C6.88289 16.6202 7.4751 16.1256 8.1561 15.7852C8.8371 15.4448 9.58811 15.2678 10.3495 15.2684" stroke="black"/>
<path d="M11.2024 23.4407C11.6319 22.5586 12.3007 21.815 13.1325 21.2948C13.9644 20.7746 14.9257 20.4988 15.9068 20.4987C16.8879 20.4987 17.8493 20.7746 18.6811 21.2948C19.513 21.815 20.1818 22.5586 20.6113 23.4407" stroke="black"/>
<path d="M10.3495 15.2684C9.85333 15.2684 9.3674 15.1271 8.94848 14.8612C8.52957 14.5953 8.19495 14.2156 7.9837 13.7667C7.77245 13.3177 7.6933 12.8179 7.75548 12.3256C7.81766 11.8333 8.01861 11.3689 8.33486 10.9865C8.65111 10.6042 9.06961 10.3197 9.5415 10.1663C10.0134 10.0129 10.5192 9.99689 10.9998 10.1202C11.4804 10.2435 11.9161 10.5009 12.2558 10.8626C12.5956 11.2242 12.8255 11.675 12.9187 12.1623" stroke="black"/>
<path d="M18.8948 12.1624C18.9879 11.675 19.2178 11.2241 19.5575 10.8624C19.8973 10.5007 20.333 10.2431 20.8137 10.1198C21.2944 9.99644 21.8002 10.0124 22.2722 10.1658C22.7441 10.3192 23.1627 10.6038 23.479 10.9862C23.7953 11.3686 23.9963 11.833 24.0584 12.3254C24.1206 12.8177 24.0414 13.3176 23.8302 13.7667C23.6189 14.2157 23.2842 14.5953 22.8652 14.8613C22.4462 15.1272 21.9602 15.2684 21.4639 15.2684" stroke="black"/>
</svg>
