<svg width="32" height="44" viewBox="0 0 32 44" fill="none" xmlns="http://www.w3.org/2000/svg">
<path d="M15.5202 0C6.96222 0 0 6.96222 0 15.5202C0 25.9378 14.2294 42.9616 14.8352 43.6812C15.0044 43.8824 15.2536 43.9988 15.5163 44H15.5202C15.7815 44 16.0301 43.8857 16.2002 43.6871C16.8061 42.9796 31.0403 26.2371 31.0403 15.5202C31.0402 6.96222 24.0781 0 15.5202 0ZM15.5255 41.6956C12.6678 38.1414 1.79079 24.0506 1.79079 15.5202C1.79079 7.94978 7.94978 1.79079 15.5202 1.79079C23.0905 1.79079 29.2495 7.94978 29.2495 15.5202C29.2494 24.2938 18.3914 38.183 15.5255 41.6956Z" fill="#30D090"/>
<path d="M15.5255 41.6956C12.6678 38.1414 1.79079 24.0506 1.79079 15.5202C1.79079 7.94978 7.94978 1.79079 15.5202 1.79079C23.0905 1.79079 29.2495 7.94978 29.2495 15.5202C29.2494 24.2938 18.3914 38.183 15.5255 41.6956Z" fill="#30D090"/>
<path d="M13.697 11.0381V22.8063" stroke="black"/>
<path d="M7.81299 20.125C7.81296 19.9744 7.86501 19.8284 7.96032 19.7117C8.05564 19.5951 8.18834 19.515 8.33595 19.4851C8.9266 19.3644 9.45744 19.0434 9.83867 18.5764C10.2199 18.1094 10.4281 17.5251 10.4281 16.9222C10.4281 16.3194 10.2199 15.735 9.83867 15.268C9.45744 14.801 8.9266 14.48 8.33595 14.3594C8.18834 14.3294 8.05564 14.2493 7.96032 14.1327C7.86501 14.0161 7.81296 13.8701 7.81299 13.7195V11.6919C7.81299 11.5185 7.88187 11.3522 8.00448 11.2296C8.12709 11.107 8.29338 11.0381 8.46677 11.0381H24.1576C24.331 11.0381 24.4973 11.107 24.6199 11.2296C24.7425 11.3522 24.8114 11.5185 24.8114 11.6919V13.7195C24.8115 13.8701 24.7594 14.0161 24.6641 14.1327C24.5688 14.2493 24.4361 14.3294 24.2885 14.3594C23.6978 14.48 23.167 14.801 22.7857 15.268C22.4045 15.735 22.1963 16.3194 22.1963 16.9222C22.1963 17.5251 22.4045 18.1094 22.7857 18.5764C23.167 19.0434 23.6978 19.3644 24.2885 19.4851C24.4361 19.515 24.5688 19.5951 24.6641 19.7117C24.7594 19.8284 24.8115 19.9744 24.8114 20.125V22.1525C24.8114 22.3259 24.7425 22.4922 24.6199 22.6148C24.4973 22.7374 24.331 22.8063 24.1576 22.8063H8.46677C8.29338 22.8063 8.12709 22.7374 8.00448 22.6148C7.88187 22.4922 7.81299 22.3259 7.81299 22.1525V20.125Z" stroke="black"/>
</svg>
