<svg width="32" height="44" viewBox="0 0 32 44" fill="none" xmlns="http://www.w3.org/2000/svg">
<path d="M15.5202 0C6.96222 0 0 6.96222 0 15.5202C0 25.9378 14.2294 42.9616 14.8352 43.6812C15.0044 43.8824 15.2536 43.9988 15.5163 44H15.5202C15.7815 44 16.0301 43.8857 16.2002 43.6871C16.8061 42.9796 31.0403 26.2371 31.0403 15.5202C31.0402 6.96222 24.0781 0 15.5202 0ZM15.5255 41.6956C12.6678 38.1414 1.79079 24.0506 1.79079 15.5202C1.79079 7.94978 7.94978 1.79079 15.5202 1.79079C23.0905 1.79079 29.2495 7.94978 29.2495 15.5202C29.2494 24.2938 18.3914 38.183 15.5255 41.6956Z" fill="#30D090"/>
<path d="M15.5255 41.6956C12.6678 38.1414 1.79079 24.0506 1.79079 15.5202C1.79079 7.94978 7.94978 1.79079 15.5202 1.79079C23.0905 1.79079 29.2495 7.94978 29.2495 15.5202C29.2494 24.2938 18.3914 38.183 15.5255 41.6956Z" fill="#30D090"/>
<path d="M10.7676 9.16455V12.4335" stroke="black"/>
<path d="M10.7676 16.0293V24.8554" stroke="black"/>
<path d="M13.0557 9.16455L13.7095 13.0873C13.7095 13.8675 13.3995 14.6159 12.8478 15.1676C12.2961 15.7193 11.5477 16.0293 10.7675 16.0293C9.9872 16.0293 9.23888 15.7193 8.68714 15.1676C8.1354 14.6159 7.82544 13.8675 7.82544 13.0873L8.47923 9.16455" stroke="black"/>
<path d="M20.5743 19.6251H15.9978C15.9978 19.6251 16.9785 10.4721 20.5743 9.16455V24.8554" stroke="black"/>
</svg>
