<svg width="32" height="44" viewBox="0 0 32 44" fill="none" xmlns="http://www.w3.org/2000/svg">
<path d="M15.5202 0C6.96222 0 0 6.96222 0 15.5202C0 25.9378 14.2294 42.9616 14.8352 43.6812C15.0044 43.8824 15.2536 43.9988 15.5163 44H15.5202C15.7815 44 16.0301 43.8857 16.2002 43.6871C16.8061 42.9796 31.0403 26.2371 31.0403 15.5202C31.0402 6.96222 24.0781 0 15.5202 0ZM15.5255 41.6956C12.6678 38.1414 1.79079 24.0506 1.79079 15.5202C1.79079 7.94978 7.94978 1.79079 15.5202 1.79079C23.0905 1.79079 29.2495 7.94978 29.2495 15.5202C29.2494 24.2938 18.3914 38.183 15.5255 41.6956Z" fill="#30D090"/>
<path d="M15.5255 41.6956C12.6678 38.1414 1.79079 24.0506 1.79079 15.5202C1.79079 7.94978 7.94978 1.79079 15.5202 1.79079C23.0905 1.79079 29.2495 7.94978 29.2495 15.5202C29.2494 24.2938 18.3914 38.183 15.5255 41.6956Z" fill="#30D090"/>
<path d="M13.2303 20.7681L8 22.0757V10.3076L13.2303 9" stroke="black"/>
<path d="M18.4606 23.3833L13.2303 20.7681V9L18.4606 11.6151V23.3833Z" stroke="black"/>
<path d="M18.4606 11.6151L23.6909 10.3076V22.0757L18.4606 23.3833" stroke="black"/>
</svg>
