<svg width="15" height="15" version="1.0" viewBox="0 0 15 15" xmlns="http://www.w3.org/2000/svg"><path d="m7.5 0a7.5 7.5 0 0 0-7.5 7.5 7.5 7.5 0 0 0 7.5 7.5 7.5 7.5 0 0 0 7.5-7.5 7.5 7.5 0 0 0-7.5-7.5z" style="fill:#012169;paint-order:stroke fill markers;stroke-linejoin:round;stroke-width:16"/><path d="m0.44922 5a7.5 7.5 0 0 0-0.44922 2.5 7.5 7.5 0 0 0 0.44922 2.5h14.102a7.5 7.5 0 0 0 0.44922-2.5 7.5 7.5 0 0 0-0.42773-2.5h-14.123z" style="fill:#fff;paint-order:stroke fill markers;stroke-linejoin:round;stroke-width:16"/><path d="m7.5 0a7.5 7.5 0 0 0-1.5 0.16992v14.66a7.5 7.5 0 0 0 1.5 0.16992 7.5 7.5 0 0 0 1.5-0.16992v-14.678a7.5 7.5 0 0 0-1.5-0.15234z" style="fill:#fff;paint-order:stroke fill markers;stroke-linejoin:round;stroke-width:16"/><path d="m0.16992 6a7.5 7.5 0 0 0-0.16992 1.5 7.5 7.5 0 0 0 0.16992 1.5h14.66a7.5 7.5 0 0 0 0.16992-1.5 7.5 7.5 0 0 0-0.15234-1.5h-14.678z" style="fill:#c8102e;paint-order:stroke fill markers;stroke-linejoin:round;stroke-width:16"/><path d="m7.5 0a7.5 7.5 0 0 0-0.90039 0.064453v14.871a7.5 7.5 0 0 0 0.90039 0.064453 7.5 7.5 0 0 0 0.90039-0.064453v-14.879a7.5 7.5 0 0 0-0.90039-0.056641z" style="fill:#c8102e;paint-order:stroke fill markers;stroke-linejoin:round;stroke-width:16"/><g transform="scale(.3 .5)" style="stroke-width:2.582"><path d="m9.043 3.4766a25 15 0 0 0-3.1771 1.8945l9.7005 4.6289h4.4336v-1.168l-10.957-5.3555z" style="fill:#fff;paint-order:stroke fill markers;stroke-linejoin:round;stroke-width:41.312"/><path d="m8.0339 4.0195a25 15 0 0 0-1.5039 0.90234l10.326 5.0781h3.1445l-11.966-5.9805z" style="fill:#c8102e;paint-order:stroke fill markers;stroke-linejoin:round;stroke-width:41.312"/></g><g transform="matrix(-.3 0 0 .5 15 0)" style="stroke-width:2.582"><path d="m5.8464 5.3633a25 15 0 0 1 3.1771-1.8945l10.977 5.3633v1.168h-4.4336l-9.7201-4.6367z" style="fill:#fff;paint-order:stroke fill markers;stroke-linejoin:round;stroke-width:41.312"/><path d="m6.5039 4.9102a25 15 0 0 1 1.5039-0.90625l11.992 5.9961h-3.1445l-10.352-5.0898z" style="fill:#c8102e;paint-order:stroke fill markers;stroke-linejoin:round;stroke-width:41.312"/></g><g transform="matrix(.3 0 0 -.5 0 15)" style="stroke-width:2.582"><path d="m5.8659 5.3711a25 15 0 0 1 3.1771-1.8945l10.957 5.3555v1.168h-4.4336l-9.7005-4.6289z" style="fill:#fff;paint-order:stroke fill markers;stroke-linejoin:round;stroke-width:41.312"/><path d="m6.5299 4.9219a25 15 0 0 1 1.5039-0.90234l11.966 5.9805h-3.1445l-10.326-5.0781z" style="fill:#c8102e;paint-order:stroke fill markers;stroke-linejoin:round;stroke-width:41.312"/></g><g transform="matrix(-.3 0 0 -.5 15 15)" style="stroke-width:2.582"><path d="m9.043 3.4766a25 15 0 0 0-3.1771 1.8945l9.7005 4.6289h4.4336v-1.168l-10.957-5.3555z" style="fill:#fff;paint-order:stroke fill markers;stroke-linejoin:round;stroke-width:41.312"/><path d="m8.0339 4.0195a25 15 0 0 0-1.5039 0.90234l10.326 5.0781h3.1445l-11.966-5.9805z" style="fill:#c8102e;paint-order:stroke fill markers;stroke-linejoin:round;stroke-width:41.312"/></g></svg>
