<svg width="15" height="15" viewBox="0 0 15 15" fill="none" xmlns="http://www.w3.org/2000/svg">
<path d="M7.73162 7.83079C8.72113 7.83079 9.52329 7.02863 9.52329 6.03911C9.52329 5.0496 8.72113 4.24744 7.73162 4.24744C6.7421 4.24744 5.93994 5.0496 5.93994 6.03911C5.93994 7.02863 6.7421 7.83079 7.73162 7.83079Z"  stroke-width="1.13158" stroke-linecap="round" stroke-linejoin="round"/>
<path d="M12.2108 6.03912C12.2108 10.0704 7.73163 13.2058 7.73163 13.2058C7.73163 13.2058 3.25244 10.0704 3.25244 6.03912C3.25244 4.85117 3.72435 3.71187 4.56437 2.87186C5.40438 2.03185 6.54367 1.55994 7.73163 1.55994C8.91958 1.55994 10.0589 2.03185 10.8989 2.87186C11.7389 3.71187 12.2108 4.85117 12.2108 6.03912V6.03912Z"  stroke-width="1.13158" stroke-linecap="round" stroke-linejoin="round"/>
</svg>
