<?xml version="1.0" encoding="UTF-8" standalone="no"?>
<svg
        width="17"
        height="18"
        viewBox="0 0 17 18"
        fill="none"
        version="1.1"
        id="svg1">
    <defs
            id="defs1"/>
    id="namedview1"
    pagecolor="#505050"
    bordercolor="#ffffff"
    borderopacity="1"
    inkscape:showpageshadow="0"
    inkscape:pageopacity="0"
    inkscape:pagecheckerboard="1"
    inkscape:deskcolor="#505050"
    inkscape:zoom="17.529412"
    inkscape:cx="8.5"
    inkscape:cy="9.0134228"
    inkscape:window-width="956"
    inkscape:window-height="992"
    inkscape:window-x="960"
    inkscape:window-y="0"
    inkscape:window-maximized="1"
    inkscape:current-layer="svg1" />
    <path
            d="M8.67124 13.9565L12.3297 16.3671C12.7973 16.6752 13.3779 16.2169 13.2392 15.6492L12.1822 11.3249C12.1524 11.2044 12.1559 11.0777 12.1923 10.9592C12.2288 10.8408 12.2966 10.7354 12.388 10.6553L15.6687 7.81548C16.0997 7.44235 15.8772 6.69832 15.3234 6.66094L11.0391 6.37177C10.9237 6.36319 10.813 6.3207 10.7199 6.24924C10.6268 6.17778 10.5552 6.08029 10.5133 5.96812L8.91545 1.7833C8.87202 1.66424 8.79479 1.56175 8.69402 1.48942C8.59325 1.41709 8.47371 1.37836 8.35127 1.37836C8.22883 1.37836 8.10929 1.41709 8.00852 1.48942C7.90775 1.56175 7.83052 1.66424 7.78708 1.7833L6.18921 5.96812C6.14734 6.08029 6.0757 6.17778 5.98262 6.24924C5.88954 6.3207 5.77886 6.36319 5.66346 6.37177L1.37912 6.66094C0.825287 6.69832 0.602796 7.44235 1.03386 7.81548L4.31453 10.6553C4.40596 10.7354 4.47378 10.8408 4.51019 10.9592C4.5466 11.0777 4.55013 11.2044 4.52036 11.3249L3.54011 15.3352C3.37359 16.0165 4.07032 16.5664 4.63149 16.1966L8.0313 13.9565C8.12692 13.8932 8.23792 13.8596 8.35127 13.8596C8.46462 13.8596 8.57562 13.8932 8.67124 13.9565Z"
            stroke="black"
            stroke-width="1.13158"
            stroke-linecap="round"
            stroke-linejoin="round"
            id="path1"
            style="fill:none"/>
</svg>
