<svg width="22" height="22" viewBox="0 0 22 22" fill="none" xmlns="http://www.w3.org/2000/svg">
    <path d="M8.69702 5.03815V16.8063" stroke-width="1.12974" stroke-linecap="round" stroke-linejoin="round"/>
    <path d="M2.81299 14.125C2.81296 13.9744 2.86501 13.8284 2.96032 13.7117C3.05564 13.5951 3.18834 13.515 3.33595 13.4851C3.9266 13.3644 4.45744 13.0434 4.83867 12.5764C5.2199 12.1094 5.42813 11.5251 5.42813 10.9222C5.42813 10.3194 5.2199 9.73503 4.83867 9.26803C4.45744 8.80103 3.9266 8.48005 3.33595 8.35938C3.18834 8.32941 3.05564 8.24933 2.96032 8.13271C2.86501 8.01608 2.81296 7.87008 2.81299 7.71947V5.69193C2.81299 5.51854 2.88187 5.35225 3.00448 5.22964C3.12709 5.10703 3.29338 5.03815 3.46677 5.03815H19.1576C19.331 5.03815 19.4973 5.10703 19.6199 5.22964C19.7425 5.35225 19.8114 5.51854 19.8114 5.69193V7.71947C19.8115 7.87009 19.7594 8.01608 19.6641 8.13271C19.5688 8.24933 19.4361 8.32942 19.2885 8.35938C18.6978 8.48005 18.167 8.80103 17.7857 9.26803C17.4045 9.73503 17.1963 10.3194 17.1963 10.9222C17.1963 11.5251 17.4045 12.1094 17.7857 12.5764C18.167 13.0434 18.6978 13.3644 19.2885 13.4851C19.4361 13.515 19.5688 13.5951 19.6641 13.7117C19.7594 13.8284 19.8115 13.9744 19.8114 14.125V16.1525C19.8114 16.3259 19.7425 16.4922 19.6199 16.6148C19.4973 16.7374 19.331 16.8063 19.1576 16.8063H3.46677C3.29338 16.8063 3.12709 16.7374 3.00448 16.6148C2.88187 16.4922 2.81299 16.3259 2.81299 16.1525V14.125Z"
          stroke-width="1.12974" stroke-linecap="round" stroke-linejoin="round"/>
</svg>
