<svg width="20px" height="20px" fill="#000000" version="1.1" viewBox="0 0 100 100" xmlns="http://www.w3.org/2000/svg"><path d="m92.223 100-35-35q-4.1666 3.3334-9.5833 5.2778-5.4167 1.9445-11.528 1.9445-15.138 0-25.625-10.486-10.487-10.486-10.486-25.625 1e-3 -15.139 10.486-25.625 10.485-10.486 25.625-10.486 15.14 0 25.625 10.486 10.484 10.486 10.486 25.625 0 6.1111-1.9445 11.528-1.9445 5.4166-5.2778 9.5833l35 35zm-56.111-38.888q10.417 0 17.708-7.2917 7.2917-7.2917 7.2917-17.708 0-10.416-7.2917-17.708-7.2917-7.2917-17.708-7.2917-10.417 0-17.708 7.2917-7.2917 7.2917-7.2917 17.708 0 10.416 7.2917 17.708 7.2917 7.2917 17.708 7.2917z"/></svg>
