<svg width="30" height="30" fill="none" version="1.1" viewBox="0 0 30 30" xmlns="http://www.w3.org/2000/svg"><path d="m26.917 7.4766c0.01939 0.32809 0.01939 0.65619 0.01939 0.98645 0 10.006-6.187 21.537-17.493 21.537-3.4835 0-6.72-1.2428-9.4429-3.3983 0.49588 0.06954 0.97235 0.09126 1.4859 0.09126 2.8747 0 5.5182-1.195 7.6324-3.2332-2.7035-0.06943-4.9676-2.251-5.7476-5.2516 0.37941 0.06955 0.76059 0.11737 1.1576 0.11737 0.55412 0 1.1065-0.09346 1.62-0.25646-2.8165-0.70401-4.9306-3.7503-4.9306-7.4288v-0.09346c0.81881 0.56064 1.77 0.91264 2.7794 0.96047-1.6553-1.3602-2.7406-3.6808-2.7406-6.3034 0-1.4058 0.3053-2.6965 0.83824-3.822 3.0265 4.5955 7.5759 7.5962 12.678 7.9221-0.09706-0.56276-0.15358-1.1494-0.15358-1.7361 0-4.1696 2.7424-7.5679 6.1483-7.5679 1.77 0 3.3688 0.91258 4.493 2.3901 1.3888-0.32809 2.7194-0.96038 3.9018-1.8273-0.45711 1.7578-1.4277 3.2353-2.7035 4.1696 1.2388-0.16296 2.437-0.58449 3.5417-1.1711-0.83819 1.4992-1.8847 2.8377-3.083 3.9154z" fill="#000"/></svg>
