<?xml version="1.0" encoding="UTF-8" standalone="no"?>
<!-- Created with Inkscape (http://www.inkscape.org/) -->

<svg
   width="1023.9999"
   height="1023.9999"
   viewBox="0 0 270.93331 270.93331"
   version="1.1"
   id="svg1"
   xml:space="preserve"
   xmlns="http://www.w3.org/2000/svg"
   xmlns:svg="http://www.w3.org/2000/svg"><defs
     id="defs1" /><g
     id="layer1"><circle
       style="display:inline;fill:#115a64;fill-opacity:1;stroke:none;stroke-width:4.23331;stroke-linejoin:round;stroke-dasharray:none;paint-order:stroke fill markers"
       id="path177"
       cx="133.87917"
       cy="133.87917"
       r="102.65833" /><path
       d="M 133.87917,31.220833 A 102.65833,102.65833 0 0 0 31.220833,133.87917 a 102.65833,102.65833 0 0 0 8.068242,39.071 114.12409,69.035713 0 0 1 96.163125,-31.8854 114.12409,69.035713 0 0 1 93.88316,29.79457 102.65833,102.65833 0 0 0 7.20214,-36.98017 A 102.65833,102.65833 0 0 0 133.87917,31.220833 Z"
       style="display:inline;fill:#91d5ee;stroke-width:0.529165;stroke-linejoin:round;paint-order:stroke fill markers"
       id="path168" /><g
       id="g78"
       style="stroke-width:0.706311"
       transform="matrix(1.4158069,0,0,1.4158069,-50.494724,-52.212417)"><path
         id="rect109"
         style="display:inline;fill:#10323c;fill-opacity:1;stroke:#ffffff;stroke-width:2.99005;stroke-linejoin:round;stroke-dasharray:none;stroke-opacity:1;paint-order:stroke fill markers"
         d="m 137.17819,83.841911 c -1.36244,0.06464 -2.6647,0.73191 -3.20342,1.808158 l -0.99426,0.266651 0.56844,0.984436 v 3.68608 h -0.54208 l -1.36271,0.786515 v 4.132564 l 0.9524,0.91829 -0.0677,26.971485 5.41673,-0.032 h -0.82889 v -0.91313 h 1.71979 v 0.90796 l 5.13715,-0.0305 -1.28778,-27.239165 0.71882,-0.718819 v -4.111377 l -1.42058,-0.820622 h -0.94103 v -3.428731 l 0.31988,-1.193209 -0.62064,-0.166398 c -0.77922,-1.334788 -2.20168,-1.872793 -3.56412,-1.808158 z m 1.6583,39.516969 -0.8909,0.005 h 0.8909 z m -2.6262,-36.211228 h 2.32131 v 1.598869 h -2.32131 z m 2.48305,0.02584 h 1.64125 v 1.607137 h -1.64125 z m 1.87069,0.127641 h 0.38241 v 1.326017 h -0.38241 z m -6.70915,0.05064 h 0.4594 v 1.717725 h -0.4594 z m 0.62115,0.06821 h 1.44539 v 1.385962 h -1.44539 z m 1.74305,1.470711 h 2.32957 v 1.734778 h -2.32957 z m 2.55953,0.03411 h 1.50482 v 1.692403 h -1.50482 z m -4.36253,0.05116 h 1.47123 v 1.598352 h -1.47123 z m 6.02031,0.06821 h 0.4594 v 1.521871 h -0.4594 z m -6.59805,0.195337 h 0.493 v 1.368909 h -0.493 z m 2.66806,7.503935 h 1.98437 v 1.984375 h -1.98437 z m 0.0651,2.660303 h 1.98437 v 1.984381 h -1.98437 z m 0.0667,2.731101 h 1.98438 v 1.98438 h -1.98438 z m 0.0589,2.42776 h 1.98438 v 1.98437 h -1.98438 z m 0.0641,2.62413 h 1.98438 v 1.98437 h -1.98438 z m 0.06,2.58175 h 1.85208 v 1.85209 h -1.85208 z m 0.0667,2.58227 h 1.85208 v 1.85209 h -1.85208 z m 0.0594,2.45257 h 1.85208 v 1.85208 h -1.85208 z m 0.0625,2.68769 h 1.85209 v 1.85208 h -1.85209 z m 0.0615,2.50941 h 1.85208 v 1.85208 h -1.85208 z" /><path
         id="rect96"
         style="display:inline;fill:#10323c;fill-opacity:1;stroke:#ffffff;stroke-width:2.99005;stroke-linejoin:round;stroke-dasharray:none;stroke-opacity:1;paint-order:stroke fill markers"
         d="m 130.76153,123.76247 -0.0186,2.42311 -51.905872,0.17467 -0.01447,0.65319 -1.670182,0.13435 1.708422,2.33888 -0.02377,7.55199 c 46.238812,-5.61774 49.585842,-3.20196 76.623752,-4.08864 l -0.0718,-5.2312 1.25057,-0.0362 v -3.92018 z m 11.33936,2.45825 h 2.48512 v 4.10673 h -2.48512 z m 3.91759,0.0212 h 2.54816 v 4.1491 h -2.54816 z m -7.75043,0.063 h 2.44274 v 4.1491 h -2.44274 z m -3.81217,0.0212 h 2.42207 v 4.08554 h -2.42207 z m -14.00587,2.06396 h 2.27428 v 4.00182 h -2.27428 z m -3.34863,0.14727 h 2.65358 v 4.10725 h -2.65358 z m -8.57209,0.0424 h 2.46394 v 4.23333 h -2.46394 z m -5.15989,0.0842 h 2.40089 v 4.19096 h -2.40089 z m 8.38192,0.10542 h 2.52749 v 4.12791 h -2.52749 z m -23.408392,0.0641 h 2.561601 v 4.48551 h -2.561601 z m 3.126424,0.0202 h 2.80138 v 4.42247 h -2.80138 z m 8.698698,0.0419 h 2.29546 v 4.12791 h -2.29546 z m -5.560388,0.0424 h 2.611727 v 4.33823 h -2.611727 z" /></g><g
       id="g79"
       transform="matrix(1.4158069,0,0,1.4158069,-50.494724,-52.212417)"
       style="stroke-width:0.706311"><path
         id="path157"
         style="display:inline;fill:#00ac6f;fill-opacity:0.988038;stroke-width:0.186878"
         d="m 141.51684,132.735 c -17.01453,0.0682 -41.907696,1.11516 -62.67973,4.30367 -1.036633,0.15912 -9.838268,2.06165 -19.86675,7.24664 a 72.508709,72.508709 0 0 0 5.161413,16.47958 c 1.499317,-0.0313 16.011588,-0.33347 23.868935,-0.39967 6.62376,-6.56828 52.832152,-27.8751 80.711642,0 h 27.76125 c 0.68498,-1.51327 2.12441,-4.96542 3.44666,-9.58188 a 72.508709,72.508709 0 0 0 1.56766,-6.53015 c 0.1725,-0.90202 0.31544,-1.8483 0.45734,-2.79514 a 72.508709,72.508709 0 0 0 0.4234,-5.37676 c -9.38837,-1.16658 -33.07841,-2.52762 -46.90787,-3.13131 -3.47623,-0.15174 -8.27244,-0.2377 -13.94395,-0.21498 z" /></g><g
       id="g80"
       style="display:inline"><path
         d="m 171.27017,166.59862 c 9.96661,6.08585 1.7091,21.99391 -14.34383,12.8726 -13.71133,-7.79082 -27.77402,-5.03174 -27.77402,-5.03174 0,0 28.9026,11.07974 37.7393,12.33258 3.16912,-0.23971 19.87087,0.5382 13.96338,-14.55804 -2.93046,-2.22173 -6.21001,-4.022 -9.58483,-5.6154 z"
         style="fill:#12818c;stroke-width:0.264583"
         id="path65" /><path
         d="m 46.799211,188.06552 c 2.305815,-0.11915 16.398353,-0.8768 22.325252,-2.57917 1.949002,-0.55981 5.033284,-3.41684 5.033284,-3.41684 l -30.656526,-0.0439 a 102.65833,102.65833 0 0 0 3.29799,6.03994 z"
         style="fill:#12818c;stroke-width:0.264583"
         id="path62" /><path
         d="m 69.553377,213.63502 c 4.935837,-0.0975 34.755053,-1.03 32.817633,-10.41745 -1.00364,-4.86301 -13.898891,-2.86287 -13.898891,-2.86287 0,0 3.379302,1.49308 2.770374,1.93941 -5.972832,4.37795 -26.934667,2.3954 -31.896761,1.86242 a 102.65833,102.65833 0 0 0 10.207645,9.47849 z"
         style="fill:#12818c;stroke-width:0.264583"
         id="path59" /><path
         d="m 81.911796,222.17094 c 4.380996,-0.42361 25.702914,-2.96581 42.669234,-14.75104 -1.29609,-0.72608 -2.47265,-1.16866 -3.78634,-1.10846 -11.59637,7.3292 -35.638963,14.57126 -39.273568,15.64607 a 102.65833,102.65833 0 0 0 0.390674,0.21343 z"
         style="fill:#12818c;stroke-width:0.264583"
         id="path56" /><path
         d="m 92.528202,227.74372 c 23.691888,-2.82577 19.320998,-6.20897 48.719508,-16.0352 -22.36155,-8.30873 -18.28304,-7.80463 -31.67145,-10.44845 0.5899,13.58097 -27.090195,15.91385 -34.775658,16.30288 a 102.65833,102.65833 0 0 0 6.72052,4.39456 c 3.634605,-1.07481 27.677198,-8.31687 39.273568,-15.64607 1.31369,-0.0602 2.49025,0.38238 3.78634,1.10846 -16.96632,11.78523 -38.288238,14.32743 -42.669234,14.75104 a 102.65833,102.65833 0 0 0 10.616406,5.57278 z"
         style="fill:#10323c;stroke-width:0.264583"
         id="path54" /><path
         d="m 121.76621,236.82947 c -1.1e-4,8e-5 -0.0124,0.009 -0.0124,0.009 0,0 0.34204,0.0204 0.50953,0.0439 -0.16086,-0.02 -0.33763,-0.032 -0.49713,-0.0527 z"
         style="fill:#12818c;stroke-width:0.264583"
         id="path52" /><path
         d="m 125.64143,235.94839 c 19.6358,-8.78272 39.96454,-12.26282 53.58329,-13.95264 -3.15359,-0.81507 -3.87141,-1.22451 -5.87096,-1.23351 -25.33123,-0.11205 -44.75369,11.5161 -50.03932,15.01975 a 102.65833,102.65833 0 0 0 2.32699,0.1664 z"
         style="fill:#12818c;stroke-width:0.264583"
         id="path50" /><path
         d="m 190.62609,219.30858 c -17.238,0.24026 -27.54018,-2.86613 -35.59938,-3.68195 -27.51584,3.29993 -34.82376,11.19487 -52.96214,15.67398 a 102.65833,102.65833 0 0 0 21.24987,4.48138 c 5.28563,-3.50365 24.70809,-15.1318 50.03932,-15.01975 1.99955,0.009 2.71737,0.41844 5.87096,1.23351 -13.61875,1.68982 -33.94749,5.16992 -53.58329,13.95264 a 102.65833,102.65833 0 0 0 8.23774,0.58911 102.65833,102.65833 0 0 0 56.74692,-17.22892 z"
         style="fill:#10323c;stroke-width:0.264583"
         id="path48" /><path
         d="m 209.60788,202.96125 c -7.89452,1.11263 -34.47516,3.68249 -66.98868,-6.40271 -19.01724,-5.89886 -31.73808,-15.8014 -69.872736,-7.05279 -8.249833,1.89262 -21.021107,2.54488 -23.152592,2.64841 a 102.65833,102.65833 0 0 0 5.527311,7.38405 c 3.031409,-0.0471 14.072573,-0.38058 27.550773,-2.97967 5.233008,-1.0091 21.853894,-5.73779 50.674424,7.44451 22.33124,10.21414 57.29847,10.56464 63.63023,10.55181 a 102.65833,102.65833 0 0 0 12.63127,-11.59361 z"
         style="fill:#12818c;stroke-width:0.264583"
         id="path45" /><path
         d="m 219.33132,190.5956 c -6.5405,1.04288 -45.99159,6.78886 -69.35391,-4.0473 -50.785388,-23.5558 -70.647885,-2.77037 -70.647885,-2.77037 0,0 26.275525,-7.04611 63.629195,8.31164 26.65893,10.96067 66.09632,6.76532 70.57708,6.24819 a 102.65833,102.65833 0 0 0 5.79552,-7.74216 z"
         style="fill:#12818c;stroke-width:0.264583"
         id="path43" /><path
         style="fill:#10323c;stroke-width:0.264583"
         d="m 224.20699,182.11705 -35.54977,-0.18604 c 0,0 1.19833,3.32037 -3.00395,6.92206 18.51182,0.46423 31.60005,-1.85509 36.56727,-3.098 a 102.65833,102.65833 0 0 0 1.98645,-3.63802 z"
         id="path165" /><path
         style="fill:#10323c;stroke-width:0.264583"
         d="m 227.67396,174.83377 c -0.56493,1.32461 -1.17313,2.62846 -1.79266,3.92689 0.013,-3.5e-4 0.1484,-0.003 0.1602,-0.003 0.64424,-1.29475 1.26105,-2.60298 1.85002,-3.92379 z m 0,0 h -39.30458 c -39.472,-39.46581 -104.894121,-9.29943 -114.272094,0 -11.142819,0.0939 -31.77298,0.52368 -33.838245,0.56689 0.496443,1.13355 0.99673,2.26493 1.533757,3.37964 h 36.941414 c 0,0 13.124747,-9.93026 33.045528,-7.84913 7.68969,-1.64964 15.75741,-2.87195 24.02902,-3.36362 9.30815,-0.55328 18.83652,-0.21876 28.2758,1.35961 -16.41376,-9.54514 -53.69745,-6.0313 -70.550218,-0.99994 8.971988,-7.32245 49.643058,-14.51986 77.669678,-1.28726 -0.0229,-0.014 -0.0384,-0.0316 -0.0615,-0.0455 4.23885,1.65616 7.83357,4.29919 11.29596,7.14839 3.97234,1.45678 7.88753,3.18776 11.72021,5.22604 12.81634,0.29319 29.63802,-0.15104 31.72261,-0.20826 0.61953,-1.29843 1.22773,-2.60228 1.79266,-3.92689 z m -33.51527,4.13515 c -3.83268,-2.03828 -7.74787,-3.76926 -11.72021,-5.22604 1.82976,1.51862 3.5506,3.17035 5.1232,4.98833 1.96177,0.11233 4.23062,0.18358 6.59701,0.23771 z m -30.07413,-10.04176 c -9.43928,-1.57837 -18.96765,-1.91289 -28.2758,-1.35961 -8.27161,0.49167 -16.33933,1.71398 -24.02902,3.36362 2.35176,0.24569 4.77715,0.62089 7.3086,1.23868 21.84982,-6.92503 34.26349,1.08247 37.68969,2.46652 11.79892,4.76631 16.58999,-0.31057 7.30653,-5.70921 z M 41.792798,178.7803 c -0.537027,-1.11471 -1.037314,-2.24609 -1.533757,-3.37964 -0.01382,2.9e-4 -0.167179,0.003 -0.179317,0.004 0.529195,1.13531 1.079124,2.26084 1.649512,3.37602 z"
         id="path158" /></g><path
       style="display:inline;fill:#e8c856;fill-opacity:1;stroke-width:0.529167;stroke-linejoin:round;paint-order:stroke fill markers"
       d="M 85.691153,43.233433 C 70.06925,51.612694 56.748047,63.757299 47.282178,78.745735 c 4.92576,7.15253 13.254369,11.671984 21.93892,11.691122 14.612534,-10e-7 26.458332,-11.845799 26.458333,-26.458333 -0.0023,-8.02922 -3.7216,-15.725417 -9.988278,-20.745091 z"
       id="path176" /><path
       style="fill:#7b838e;fill-opacity:1;stroke:none;stroke-width:4.23333;stroke-linejoin:round;stroke-dasharray:none;paint-order:stroke fill markers"
       d="m 158.81998,51.515544 c 5.43244,-0.820022 8.57293,9.026139 8.57293,9.026139 0,0 3.44843,-7.223611 8.22213,-7.71389 -5.55283,-0.648397 -5.49781,3.099034 -7.97729,5.201779 -3.60079,-4.877188 -2.39967,-7.707947 -8.81777,-6.514028 z"
       id="path169" /><path
       style="fill:#7b838e;fill-opacity:1;stroke:none;stroke-width:4.23333;stroke-linejoin:round;stroke-dasharray:none;paint-order:stroke fill markers"
       d="m 102.73994,76.38245 c 7.20245,1.152761 8.35792,6.65461 8.35792,6.65461 0,0 4.49378,-6.100095 8.01591,-5.687141 -4.44554,-0.895031 -5.97052,2.537968 -7.64318,3.835062 -3.51048,-3.595754 -3.09901,-5.206195 -8.73065,-4.802531 z"
       id="path169-2" /></g></svg>
