<svg width="15" height="15" version="1.0" viewBox="0 0 15 15" xmlns="http://www.w3.org/2000/svg"><path d="m4.9995 0.44895a7.5 7.5 0 0 0-4.9995 7.0518 7.5 7.5 0 0 0 4.9995 7.0503v-14.102z" style="fill:#002654;paint-order:stroke fill markers;stroke-linejoin:round;stroke-width:12"/><path d="m7.5 2.5e-5a7.5 7.5 0 0 0-2.5005 0.44824v14.102a7.5 7.5 0 0 0 2.5005 0.44971 7.5 7.5 0 0 0 2.5005-0.44971v-14.121a7.5 7.5 0 0 0-2.5005-0.4292z" style="fill:#fff;paint-order:stroke fill markers;stroke-linejoin:round;stroke-width:12"/><path d="m10 14.561a7.5 7.5 0 0 0 4.9995-7.0503 7.5 7.5 0 0 0-4.9995-7.0708v14.121z" style="fill:#ed2939;paint-order:stroke fill markers;stroke-linejoin:round;stroke-width:12"/></svg>
