<svg width="22" height="22" viewBox="0 0 22 22" fill="none" xmlns="http://www.w3.org/2000/svg">
    <path d="M10.9069 15.4987C12.7122 15.4987 14.1758 14.0352 14.1758 12.2298C14.1758 10.4244 12.7122 8.96088 10.9069 8.96088C9.10149 8.96088 7.63794 10.4244 7.63794 12.2298C7.63794 14.0352 9.10149 15.4987 10.9069 15.4987Z"
          stroke-width="1.12974" stroke-linecap="round" stroke-linejoin="round"/>
    <path d="M16.4641 10.2684C17.2254 10.2678 17.9764 10.4447 18.6574 10.7851C19.3383 11.1256 19.9305 11.6201 20.3869 12.2295"
          stroke-width="1.12974" stroke-linecap="round" stroke-linejoin="round"/>
    <path d="M1.42651 12.2296C1.88289 11.6202 2.4751 11.1256 3.1561 10.7852C3.8371 10.4448 4.58811 10.2678 5.34946 10.2684"
          stroke-width="1.12974" stroke-linecap="round" stroke-linejoin="round"/>
    <path d="M6.20239 18.4407C6.63186 17.5586 7.30069 16.815 8.13254 16.2948C8.96438 15.7746 9.92573 15.4988 10.9068 15.4987C11.8879 15.4987 12.8493 15.7746 13.6811 16.2948C14.513 16.815 15.1818 17.5586 15.6113 18.4407"
          stroke-width="1.12974" stroke-linecap="round" stroke-linejoin="round"/>
    <path d="M5.34952 10.2684C4.85333 10.2684 4.3674 10.1271 3.94848 9.86118C3.52957 9.59526 3.19495 9.21564 2.9837 8.76666C2.77245 8.31768 2.6933 7.81787 2.75548 7.32559C2.81766 6.83331 3.01861 6.36888 3.33486 5.98653C3.65111 5.60418 4.06961 5.31969 4.5415 5.16628C5.01338 5.01288 5.51917 4.99689 5.9998 5.12018C6.48043 5.24347 6.91607 5.50095 7.25584 5.86256C7.59561 6.22417 7.8255 6.67498 7.91865 7.16235"
          stroke-width="1.12974" stroke-linecap="round" stroke-linejoin="round"/>
    <path d="M13.8948 7.16239C13.9879 6.67495 14.2178 6.22405 14.5575 5.86236C14.8973 5.50067 15.333 5.24312 15.8137 5.11978C16.2944 4.99644 16.8002 5.01241 17.2722 5.16582C17.7441 5.31923 18.1627 5.60375 18.479 5.98615C18.7953 6.36855 18.9963 6.83304 19.0584 7.32539C19.1206 7.81774 19.0414 8.31762 18.8302 8.76665C18.6189 9.21567 18.2842 9.59532 17.8652 9.86125C17.4462 10.1272 16.9602 10.2684 16.4639 10.2684"
          stroke-width="1.12974" stroke-linecap="round" stroke-linejoin="round"/>
</svg>
