<svg xmlns="http://www.w3.org/2000/svg" xmlns:xlink="http://www.w3.org/1999/xlink" version="1.1" x="0px" y="0px" viewBox="0 0 100 125" enable-background="new 0 0 100 100" xml:space="preserve"><path d="M49.992,94.271c-24.438,0-44.32-19.882-44.32-44.32c0-24.438,19.882-44.32,44.32-44.32c24.438,0,44.32,19.882,44.32,44.32  C94.312,74.389,74.431,94.271,49.992,94.271z M49.992,14.494c-19.55,0-35.456,15.906-35.456,35.456  c0,19.551,15.906,35.456,35.456,35.456c19.551,0,35.456-15.905,35.456-35.456C85.448,30.4,69.543,14.494,49.992,14.494z"/><polygon points="73.734,43.619 56.324,43.619 56.324,26.208 43.661,26.208 43.661,43.619 26.25,43.619 26.25,56.282 43.661,56.282   43.661,73.692 56.324,73.692 56.324,56.282 73.734,56.282 "/><text x="0" y="115" fill="#000000" font-size="5px" font-weight="bold" font-family="'Helvetica Neue', Helvetica, Arial-Unicode, Arial, Sans-serif">Created by Percy Batalier</text><text x="0" y="120" fill="#000000" font-size="5px" font-weight="bold" font-family="'Helvetica Neue', Helvetica, Arial-Unicode, Arial, Sans-serif">from the Noun Project</text></svg>