<svg width="24px" height="24px" fill="#000000" version="1.1" viewBox="0 0 100 100" xmlns="http://www.w3.org/2000/svg"><path d="m92.222 100-35-35q-4.1666 3.3333-9.5833 5.2778t-11.528 1.9445q-15.138 0-25.625-10.486t-10.486-25.625 10.486-25.625 25.625-10.486 25.625 10.486 10.486 25.625q0 6.1111-1.9445 11.528-1.9445 5.4166-5.2778 9.5833l35 35zm-56.111-38.888q10.417 0 17.708-7.2916 7.2916-7.2916 7.2916-17.708t-7.2916-17.708q-7.2916-7.2916-17.708-7.2916t-17.708 7.2916q-7.2916 7.2916-7.2916 17.708t7.2916 17.708q7.2916 7.2916 17.708 7.2916z"/></svg>
