<svg width="30" height="30" fill="none" version="1.1" viewBox="0 0 30 30" xmlns="http://www.w3.org/2000/svg"><path d="m8.815 0.089999c1.5999-0.072499 2.1112-0.089999 6.185-0.089999 4.0737 0 4.5849 0.0175 6.185 0.089999 2.4376 0.11125 4.5788 0.70875 6.2976 2.4275 1.7187 1.7187 2.3162 3.86 2.4274 6.2975 0.0725 1.6 0.09001 2.1112 0.09001 6.185s-0.01751 4.585-0.09001 6.185c-0.11127 2.4375-0.70874 4.5788-2.4274 6.2975-1.7188 1.7188-3.86 2.3163-6.2976 2.4275-1.6 0.07248-2.1112 0.08999-6.185 0.08999-4.0737 0-4.585-0.01751-6.185-0.08999-2.4375-0.11123-4.5788-0.70872-6.2975-2.4275-1.7187-1.7188-2.3163-3.86-2.4275-6.2975-0.072504-1.6-0.090004-2.1112-0.090004-6.185s0.0175-4.585 0.090004-6.185c0.11124-2.4375 0.70875-4.5788 2.4275-6.2975s3.86-2.3163 6.2975-2.4275zm12.244 2.7072c-1.5813-0.072501-2.0563-0.087499-6.0612-0.087499-4.005 0-4.48 0.014998-6.0613 0.087499-1.7075 0.077495-3.2913 0.42-4.51 1.6388-1.2188 1.2188-1.5613 2.8025-1.6388 4.51-0.072504 1.5813-0.087508 2.0563-0.087508 6.0613s0.015005 4.48 0.087508 6.0613c0.077496 1.7075 0.42 3.2913 1.6388 4.51 1.2187 1.2187 2.8025 1.5612 4.51 1.6388 1.5812 0.07248 2.0563 0.08748 6.0613 0.08748 4.005 0 4.48-0.015 6.0612-0.08748 1.7075-0.0775 3.2913-0.42002 4.51-1.6388 1.2187-1.2187 1.5613-2.8025 1.6387-4.51 0.0725-1.5813 0.08748-2.0563 0.08748-6.0613s-0.01499-4.48-0.08748-6.0613c-0.077457-1.7075-0.41998-3.2912-1.6387-4.51-1.2187-1.2188-2.8026-1.5613-4.51-1.6387zm-13.765 12.203c0-4.2537 3.4488-7.7025 7.7025-7.7025s7.7025 3.4487 7.7025 7.7025c0 4.2537-3.4487 7.7025-7.7025 7.7025s-7.7025-3.4488-7.7025-7.7025zm2.701-4e-3c0 2.7612 2.2387 5.0001 5 5.0001 2.7612 0 4.9999-2.2388 4.9999-5.0001 0-2.7612-2.2387-5-4.9999-5-2.7613 0-5 2.2387-5 5zm14.809-7.9994c0 0.99414-0.80596 1.8-1.8001 1.8-0.99404 0-1.8-0.80586-1.8-1.8 0-0.99409 0.80596-1.8 1.8-1.8 0.99413 0 1.8001 0.80589 1.8001 1.8z" clip-rule="evenodd" fill="#000" fill-rule="evenodd"/></svg>
